HIERARCHY
ROOT mixamorig:Hips
{
	OFFSET 0.000000 104.274902 0.000000
	CHANNELS 6 Xposition Yposition Zposition Xrotation Yrotation Zrotation
	JOINT mixamorig:Spine
	{
		OFFSET 0.000000 10.181549 0.131524
		CHANNELS 6 Xposition Yposition Zposition Xrotation Yrotation Zrotation
		JOINT mixamorig:Spine1
		{
			OFFSET 0.000000 9.893990 -1.470706
			CHANNELS 3 Xrotation Yrotation Zrotation
			JOINT mixamorig:Spine2
			{
				OFFSET 0.000000 9.220787 -1.370637
				CHANNELS 3 Xrotation Yrotation Zrotation
				JOINT mixamorig:Neck
				{
					OFFSET 0.000000 16.740372 -2.049022
					CHANNELS 6 Xposition Yposition Zposition Xrotation Yrotation Zrotation
					JOINT mixamorig:Head
					{
						OFFSET 0.000000 9.617859 1.684976
						CHANNELS 6 Xposition Yposition Zposition Xrotation Yrotation Zrotation
						JOINT mixamorig:HeadTop_End
						{
							OFFSET 0.000000 22.037384 7.501072
							CHANNELS 6 Xposition Yposition Zposition Xrotation Yrotation Zrotation
							End Site
							{
								OFFSET 0.000000 23.106567 -2.828246
							}
						}
					}
				}
				JOINT mixamorig:RightShoulder
				{
					OFFSET -4.570000 11.014877 -2.160840
					CHANNELS 6 Xposition Yposition Zposition Xrotation Yrotation Zrotation
					JOINT mixamorig:RightArm
					{
						OFFSET -10.592867 -0.524796 -2.232105
						CHANNELS 3 Xrotation Yrotation Zrotation
						JOINT mixamorig:RightForeArm
						{
							OFFSET -27.841497 0.000000 -0.000002
							CHANNELS 3 Xrotation Yrotation Zrotation
							JOINT mixamorig:RightHand
							{
								OFFSET -28.328812 0.000000 -0.000001
								CHANNELS 3 Xrotation Yrotation Zrotation
								JOINT mixamorig:RightHandThumb1
								{
									OFFSET -2.464798 -1.573990 2.681911
									CHANNELS 6 Xposition Yposition Zposition Xrotation Yrotation Zrotation
									JOINT mixamorig:RightHandThumb2
									{
										OFFSET -3.244781 -1.873383 1.873376
										CHANNELS 3 Xrotation Yrotation Zrotation
										JOINT mixamorig:RightHandThumb3
										{
											OFFSET -2.646263 -1.527817 1.527818
											CHANNELS 6 Xposition Yposition Zposition Xrotation Yrotation Zrotation
											JOINT mixamorig:RightHandThumb4
											{
												OFFSET -1.994591 -1.151581 1.151575
												CHANNELS 6 Xposition Yposition Zposition Xrotation Yrotation Zrotation
												End Site
												{
													OFFSET -1.860176 -1.142715 1.365483
												}
											}
										}
									}
								}
								JOINT mixamorig:RightHandIndex1
								{
									OFFSET -9.108299 -0.517883 2.259803
									CHANNELS 6 Xposition Yposition Zposition Xrotation Yrotation Zrotation
									JOINT mixamorig:RightHandIndex2
									{
										OFFSET -3.699997 0.000000 0.000000
										CHANNELS 3 Xrotation Yrotation Zrotation
										JOINT mixamorig:RightHandIndex3
										{
											OFFSET -2.850006 0.000000 0.000000
											CHANNELS 3 Xrotation Yrotation Zrotation
											JOINT mixamorig:RightHandIndex4
											{
												OFFSET -2.772194 0.000000 0.000000
												CHANNELS 3 Xrotation Yrotation Zrotation
												End Site
												{
													OFFSET -2.772202 0.000000 -0.000484
												}
											}
										}
									}
								}
								JOINT mixamorig:RightHandMiddle1
								{
									OFFSET -9.532501 0.000000 -0.000000
									CHANNELS 6 Xposition Yposition Zposition Xrotation Yrotation Zrotation
									JOINT mixamorig:RightHandMiddle2
									{
										OFFSET -3.699997 0.000000 0.000000
										CHANNELS 3 Xrotation Yrotation Zrotation
										JOINT mixamorig:RightHandMiddle3
										{
											OFFSET -2.949997 0.000000 0.000000
											CHANNELS 3 Xrotation Yrotation Zrotation
											JOINT mixamorig:RightHandMiddle4
											{
												OFFSET -2.946594 0.000000 0.000000
												CHANNELS 3 Xrotation Yrotation Zrotation
												End Site
												{
													OFFSET -2.946602 0.000000 -0.000982
												}
											}
										}
									}
								}
								JOINT mixamorig:RightHandRing1
								{
									OFFSET -9.103600 -0.043106 -1.865100
									CHANNELS 6 Xposition Yposition Zposition Xrotation Yrotation Zrotation
									JOINT mixamorig:RightHandRing2
									{
										OFFSET -3.379303 0.000000 0.000000
										CHANNELS 3 Xrotation Yrotation Zrotation
										JOINT mixamorig:RightHandRing3
										{
											OFFSET -2.889694 0.000000 0.000000
											CHANNELS 3 Xrotation Yrotation Zrotation
											JOINT mixamorig:RightHandRing4
											{
												OFFSET -2.638802 0.000000 0.000000
												CHANNELS 3 Xrotation Yrotation Zrotation
												End Site
												{
													OFFSET -2.638802 0.000000 0.004218
												}
											}
										}
									}
								}
								JOINT mixamorig:RightHandPinky1
								{
									OFFSET -8.076698 -0.486725 -3.806299
									CHANNELS 6 Xposition Yposition Zposition Xrotation Yrotation Zrotation
									JOINT mixamorig:RightHandPinky2
									{
										OFFSET -3.600006 0.000000 0.000000
										CHANNELS 3 Xrotation Yrotation Zrotation
										JOINT mixamorig:RightHandPinky3
										{
											OFFSET -2.099998 0.000000 0.000000
											CHANNELS 3 Xrotation Yrotation Zrotation
											JOINT mixamorig:RightHandPinky4
											{
												OFFSET -2.115791 0.000000 0.000000
												CHANNELS 3 Xrotation Yrotation Zrotation
												End Site
												{
													OFFSET -2.115799 0.000000 0.000174
												}
											}
										}
									}
								}
							}
						}
					}
				}
				JOINT mixamorig:LeftShoulder
				{
					OFFSET 4.570400 11.014679 -2.160816
					CHANNELS 6 Xposition Yposition Zposition Xrotation Yrotation Zrotation
					JOINT mixamorig:LeftArm
					{
						OFFSET 10.592373 -0.524597 -2.232116
						CHANNELS 3 Xrotation Yrotation Zrotation
						JOINT mixamorig:LeftForeArm
						{
							OFFSET 27.841488 0.000000 0.000001
							CHANNELS 3 Xrotation Yrotation Zrotation
							JOINT mixamorig:LeftHand
							{
								OFFSET 28.328808 0.000000 -0.000000
								CHANNELS 3 Xrotation Yrotation Zrotation
								JOINT mixamorig:LeftHandThumb1
								{
									OFFSET 2.466103 -1.576202 2.681698
									CHANNELS 6 Xposition Yposition Zposition Xrotation Yrotation Zrotation
									JOINT mixamorig:LeftHandThumb2
									{
										OFFSET 3.243317 -1.872528 1.872530
										CHANNELS 3 Xrotation Yrotation Zrotation
										JOINT mixamorig:LeftHandThumb3
										{
											OFFSET 2.647881 -1.528763 1.528754
											CHANNELS 6 Xposition Yposition Zposition Xrotation Yrotation Zrotation
											JOINT mixamorig:LeftHandThumb4
											{
												OFFSET 1.998924 -1.154083 1.154080
												CHANNELS 6 Xposition Yposition Zposition Xrotation Yrotation Zrotation
												End Site
												{
													OFFSET 1.884041 -1.149155 1.337651
												}
											}
										}
									}
								}
								JOINT mixamorig:LeftHandIndex1
								{
									OFFSET 9.109299 -0.518005 2.259900
									CHANNELS 6 Xposition Yposition Zposition Xrotation Yrotation Zrotation
									JOINT mixamorig:LeftHandIndex2
									{
										OFFSET 3.699997 0.000000 0.000000
										CHANNELS 3 Xrotation Yrotation Zrotation
										JOINT mixamorig:LeftHandIndex3
										{
											OFFSET 2.850006 0.000000 0.000000
											CHANNELS 3 Xrotation Yrotation Zrotation
											JOINT mixamorig:LeftHandIndex4
											{
												OFFSET 2.774895 0.000000 0.000000
												CHANNELS 3 Xrotation Yrotation Zrotation
												End Site
												{
													OFFSET 2.774902 0.000000 -0.000072
												}
											}
										}
									}
								}
								JOINT mixamorig:LeftHandMiddle1
								{
									OFFSET 9.533401 0.000000 0.000000
									CHANNELS 6 Xposition Yposition Zposition Xrotation Yrotation Zrotation
									JOINT mixamorig:LeftHandMiddle2
									{
										OFFSET 3.699997 0.000000 0.000000
										CHANNELS 3 Xrotation Yrotation Zrotation
										JOINT mixamorig:LeftHandMiddle3
										{
											OFFSET 2.949997 0.000000 0.000000
											CHANNELS 3 Xrotation Yrotation Zrotation
											JOINT mixamorig:LeftHandMiddle4
											{
												OFFSET 2.952896 0.000000 0.000000
												CHANNELS 3 Xrotation Yrotation Zrotation
												End Site
												{
													OFFSET 2.952904 0.000000 0.000165
												}
											}
										}
									}
								}
								JOINT mixamorig:LeftHandRing1
								{
									OFFSET 9.104500 -0.042999 -1.865101
									CHANNELS 6 Xposition Yposition Zposition Xrotation Yrotation Zrotation
									JOINT mixamorig:LeftHandRing2
									{
										OFFSET 3.149994 0.000000 0.000000
										CHANNELS 3 Xrotation Yrotation Zrotation
										JOINT mixamorig:LeftHandRing3
										{
											OFFSET 2.950005 0.000000 0.000000
											CHANNELS 3 Xrotation Yrotation Zrotation
											JOINT mixamorig:LeftHandRing4
											{
												OFFSET 2.644302 0.000000 0.000000
												CHANNELS 3 Xrotation Yrotation Zrotation
												End Site
												{
													OFFSET 2.644302 0.000000 0.000083
												}
											}
										}
									}
								}
								JOINT mixamorig:LeftHandPinky1
								{
									OFFSET 8.077805 -0.486893 -3.806302
									CHANNELS 6 Xposition Yposition Zposition Xrotation Yrotation Zrotation
									JOINT mixamorig:LeftHandPinky2
									{
										OFFSET 3.600006 0.000000 0.000000
										CHANNELS 3 Xrotation Yrotation Zrotation
										JOINT mixamorig:LeftHandPinky3
										{
											OFFSET 2.099998 0.000000 0.000000
											CHANNELS 3 Xrotation Yrotation Zrotation
											JOINT mixamorig:LeftHandPinky4
											{
												OFFSET 2.125496 0.000000 0.000000
												CHANNELS 3 Xrotation Yrotation Zrotation
												End Site
												{
													OFFSET 2.125504 0.000000 -0.001254
												}
											}
										}
									}
								}
							}
						}
					}
				}
			}
		}
	}
	JOINT mixamorig:RightUpLeg
	{
		OFFSET -8.207800 -6.751701 -1.599544
		CHANNELS 6 Xposition Yposition Zposition Xrotation Yrotation Zrotation
		JOINT mixamorig:RightLeg
		{
			OFFSET 0.000004 -44.370152 0.345934
			CHANNELS 3 Xrotation Yrotation Zrotation
			JOINT mixamorig:RightFoot
			{
				OFFSET 0.000004 -44.423664 -3.043535
				CHANNELS 3 Xrotation Yrotation Zrotation
				JOINT mixamorig:RightToeBase
				{
					OFFSET 0.000001 -8.728691 10.710592
					CHANNELS 3 Xrotation Yrotation Zrotation
					JOINT mixamorig:RightToe_End
					{
						OFFSET 0.000000 -0.000665 9.278101
						CHANNELS 3 Xrotation Yrotation Zrotation
						End Site
						{
							OFFSET 0.000000 -0.000665 9.278103
						}
					}
				}
			}
		}
	}
	JOINT mixamorig:LeftUpLeg
	{
		OFFSET 8.207800 -6.751701 -1.599544
		CHANNELS 6 Xposition Yposition Zposition Xrotation Yrotation Zrotation
		JOINT mixamorig:LeftLeg
		{
			OFFSET 0.000004 -44.370037 0.346940
			CHANNELS 3 Xrotation Yrotation Zrotation
			JOINT mixamorig:LeftFoot
			{
				OFFSET 0.000004 -44.423611 -3.044388
				CHANNELS 3 Xrotation Yrotation Zrotation
				JOINT mixamorig:LeftToeBase
				{
					OFFSET 0.000001 -8.728690 10.710592
					CHANNELS 3 Xrotation Yrotation Zrotation
					JOINT mixamorig:LeftToe_End
					{
						OFFSET 0.000000 -0.000680 9.278101
						CHANNELS 3 Xrotation Yrotation Zrotation
						End Site
						{
							OFFSET 0.000000 -0.000680 9.278101
						}
					}
				}
			}
		}
	}
}
MOTION
Frames: 4
Frame Time: 0.033333
1.572777 92.283432 2.344017 102.335140 -75.937005 129.674283 -0.000005 10.181540 0.131523 10.770951 2.234376 10.090322 16.850167 4.564737 6.510585 16.893966 4.486863 6.543291 -0.000007 16.740391 -2.049023 5.141598 -9.040721 3.629890 -0.000005 9.617838 1.684988 -35.874124 -12.966187 -11.303874 0.000002 22.037384 7.501083 -0.000001 -0.000002 0.000001 -4.570011 11.014882 -2.160840 6.969668 21.762456 16.925596 -30.263714 46.174275 0.863737 -0.000146 74.184836 0.000195 -43.162124 12.612944 17.919645 -2.464786 -1.574010 2.681912 -7.341117 13.749638 7.412342 9.855779 -44.489100 -3.903149 -2.646259 -1.527797 1.527797 -0.115743 -14.513051 -28.973891 -1.994594 -1.151583 1.151583 0.000001 -0.000006 -0.000002 -9.108313 -0.517879 2.259802 -0.124388 -2.384784 45.108871 4.500574 -4.654517 88.071137 1.723201 -3.618372 50.920119 -0.000000 -0.000004 -0.000000 -9.532519 0.000002 0.000000 -0.761625 -2.932901 39.031061 5.133875 -4.632756 95.881649 1.739752 -3.631690 51.181363 -0.000002 0.000000 0.000003 -9.103596 -0.043107 -1.865104 0.154756 -4.068809 39.122661 6.509704 -4.273569 113.462877 2.549576 -4.153916 63.067330 -0.000001 0.000001 0.000001 -8.076696 -0.486728 -3.806295 -4.198891 -8.025511 44.637783 4.252900 -4.639618 85.014805 6.935963 -4.062620 119.322285 -0.000000 0.000002 -0.000001 4.570395 11.014679 -2.160817 -2.363126 -3.438148 16.342028 19.862077 41.513767 -71.750734 0.000011 -61.012386 -0.000007 -9.963482 18.731010 -10.779867 2.466106 -1.576195 2.681698 -6.141114 -11.690713 -6.761661 9.914092 42.595512 3.409796 2.647881 -1.528747 1.528750 -0.422776 8.108091 27.509109 1.998917 -1.154090 1.154081 0.000001 0.000003 -0.000000 9.109300 -0.517996 2.259900 0.255273 3.378293 -45.814331 5.654082 5.847934 -88.067476 2.162098 4.544921 -50.866365 -0.000000 -0.000002 0.000000 9.533401 -0.000003 0.000001 -0.461510 3.841658 -39.722666 6.450753 5.820549 -95.892864 2.182841 4.561681 -51.127733 -0.000000 0.000000 0.000000 9.104505 -0.043007 -1.865102 0.469689 4.966899 -39.799434 8.181084 5.368819 -113.503018 3.200460 5.218253 -63.022961 0.000000 -0.000002 0.000001 8.077801 -0.486877 -3.806302 -3.762470 9.063776 -45.253797 5.342522 5.829162 -85.005338 8.716895 5.103544 -119.369208 0.000000 -0.000001 0.000000 -8.207808 -6.751704 -1.599543 -61.002448 8.456983 -36.825242 45.165780 9.120680 -9.557151 -10.232505 29.300999 11.379100 -0.012995 0.000024 0.000000 -0.000000 0.000000 0.000001 8.207794 -6.751698 -1.599548 -23.338312 20.513384 -5.618521 47.313581 9.913360 -9.853373 -0.010891 11.016004 -18.600453 -25.909045 -0.000009 -0.000010 0.000000 -0.000003 0.000000 
3.272772 90.993935 1.489517 103.340906 -74.571780 128.329255 0.000001 10.181559 0.131525 12.825278 1.291125 9.975712 18.139760 3.818996 6.132525 18.180726 3.766475 6.148440 -0.000001 16.740370 -2.049010 6.967374 -8.615661 3.042060 -0.000000 9.617850 1.684992 -29.110130 -11.823388 -11.168982 -0.000006 22.037369 7.501080 0.000005 -0.000002 -0.000001 -4.570003 11.014872 -2.160824 7.438895 21.512497 15.549742 -38.415969 38.003036 5.933184 -0.000175 75.429146 0.000225 -43.115822 14.196613 16.168743 -2.464807 -1.573983 2.681915 -7.341118 13.749638 7.412345 9.855782 -44.489107 -3.903159 -2.646266 -1.527797 1.527813 -0.115746 -14.513051 -28.973895 -1.994590 -1.151573 1.151566 0.000002 -0.000002 0.000003 -9.108290 -0.517856 2.259805 -0.124387 -2.384787 45.108874 4.500575 -4.654518 88.071137 1.723197 -3.618371 50.920122 -0.000004 -0.000001 -0.000000 -9.532503 0.000018 0.000001 -0.761623 -2.932906 39.031061 5.133873 -4.632755 95.881649 1.739750 -3.631689 51.181370 -0.000002 -0.000000 0.000001 -9.103591 -0.043087 -1.865101 0.154764 -4.068815 39.122661 6.509705 -4.273570 113.462877 2.549573 -4.153914 63.067330 0.000002 -0.000002 -0.000001 -8.076695 -0.486712 -3.806296 -4.198889 -8.025514 44.637783 4.252899 -4.639617 85.014805 6.935959 -4.062623 119.322271 0.000000 0.000001 0.000000 4.570400 11.014688 -2.160808 -2.740020 -3.848136 15.716953 11.611473 48.480208 -63.378302 -0.000028 -70.614696 -0.000019 -16.642046 16.985057 -3.404736 2.466098 -1.576211 2.681697 -6.141117 -11.690711 -6.761661 9.914092 42.595508 3.409789 2.647866 -1.528770 1.528756 -0.422778 8.108090 27.509108 1.998933 -1.154064 1.154079 -0.000000 0.000005 -0.000000 9.109296 -0.518012 2.259901 0.255272 3.378297 -45.814331 5.654082 5.847934 -88.067469 2.162100 4.544920 -50.866365 -0.000001 0.000000 0.000001 9.533401 -0.000003 -0.000001 -0.461511 3.841657 -39.722666 6.450755 5.820548 -95.892864 2.182841 4.561676 -51.127733 -0.000002 0.000000 0.000001 9.104508 -0.042992 -1.865102 0.469690 4.966900 -39.799434 8.181090 5.368819 -113.503025 3.200461 5.218253 -63.022961 -0.000001 -0.000001 0.000000 8.077805 -0.486889 -3.806300 -3.762472 9.063778 -45.253797 5.342520 5.829163 -85.005331 8.716893 5.103544 -119.369194 0.000001 0.000000 0.000007 -8.207804 -6.751698 -1.599544 -64.071525 8.316782 -32.933055 47.924777 8.809278 -9.652893 -9.716942 28.533549 10.100956 -0.012997 0.000022 -0.000001 0.000000 -0.000001 -0.000000 8.207798 -6.751698 -1.599541 -28.707640 22.051768 -0.482530 52.095246 10.107264 -9.645249 -2.203317 10.695454 -19.119235 -23.927546 0.000009 -0.000004 0.000000 0.000001 0.000000 
4.918310 89.679214 0.577511 102.208453 -73.782333 124.659190 -0.000004 10.181560 0.131527 14.632441 0.692150 9.879828 19.068124 3.220459 5.677320 19.105509 3.202405 5.673764 -0.000002 16.740353 -2.049022 8.174735 -7.822196 2.083665 -0.000009 9.617863 1.685003 -24.392923 -8.134008 -11.510280 0.000005 22.037369 7.501079 -0.000003 -0.000002 -0.000001 -4.570014 11.014883 -2.160838 7.359425 21.275645 16.108904 -41.259916 31.903161 6.548292 -0.000261 80.760976 0.000298 -42.260194 16.336475 11.858147 -2.464794 -1.573999 2.681916 -7.341115 13.749640 7.412341 9.855779 -44.489100 -3.903149 -2.646259 -1.527812 1.527816 -0.115741 -14.513044 -28.973898 -1.994595 -1.151585 1.151584 0.000002 -0.000004 0.000005 -9.108320 -0.517886 2.259809 -0.124381 -2.384787 45.108871 4.500573 -4.654517 88.071137 1.723202 -3.618370 50.920119 0.000001 -0.000002 0.000002 -9.532500 0.000010 0.000007 -0.761619 -2.932904 39.031061 5.133875 -4.632757 95.881649 1.739746 -3.631689 51.181374 -0.000001 -0.000001 0.000003 -9.103600 -0.043105 -1.865091 0.154768 -4.068814 39.122664 6.509704 -4.273566 113.462870 2.549576 -4.153913 63.067330 0.000001 -0.000001 0.000003 -8.076688 -0.486723 -3.806294 -4.198886 -8.025512 44.637783 4.252899 -4.639618 85.014805 6.935960 -4.062620 119.322285 -0.000000 0.000001 0.000000 4.570402 11.014690 -2.160812 -3.106585 -4.423118 15.794266 -0.275940 49.910999 -52.954248 0.000071 -80.927032 0.000073 -24.638039 14.121440 2.267898 2.466102 -1.576212 2.681695 -6.141116 -11.690716 -6.761663 9.914093 42.595512 3.409790 2.647881 -1.528732 1.528752 -0.422780 8.108090 27.509115 1.998912 -1.154113 1.154077 -0.000001 -0.000004 0.000005 9.109300 -0.518008 2.259898 0.255272 3.378298 -45.814331 5.654084 5.847935 -88.067476 2.162097 4.544919 -50.866365 -0.000000 0.000001 -0.000000 9.533401 0.000027 -0.000003 -0.461510 3.841658 -39.722669 6.450753 5.820548 -95.892864 2.182844 4.561675 -51.127729 -0.000000 -0.000002 -0.000001 9.104508 -0.043022 -1.865100 0.469689 4.966902 -39.799434 8.181084 5.368820 -113.503018 3.200458 5.218255 -63.022968 -0.000002 -0.000004 0.000001 8.077801 -0.486889 -3.806303 -3.762470 9.063778 -45.253797 5.342521 5.829160 -85.005331 8.716897 5.103544 -119.369194 -0.000001 -0.000001 0.000003 -8.207801 -6.751699 -1.599536 -66.782140 7.519757 -29.663662 50.711887 8.638660 -9.729036 -9.339836 27.251591 8.866158 -0.013000 0.000023 -0.000000 -0.000000 -0.000000 -0.000000 8.207799 -6.751693 -1.599539 -33.750041 22.305434 4.559163 56.219577 10.212173 -9.496558 -5.109400 9.798555 -18.992441 -21.231122 -0.000009 -0.000005 -0.000000 0.000001 0.000000 
6.445234 88.430405 -0.319016 100.116476 -73.365616 119.914066 -0.000000 10.181552 0.131519 16.027068 0.053904 9.677732 19.631748 2.551497 5.304518 19.666073 2.559841 5.289139 -0.000006 16.740366 -2.049026 8.848402 -6.716536 0.881968 -0.000008 9.617851 1.684982 -20.504902 -3.027687 -12.086600 0.000001 22.037369 7.501082 -0.000002 -0.000000 -0.000002 -4.570007 11.014866 -2.160850 7.111379 21.725295 17.065528 -41.100841 29.138058 5.847374 -0.000393 84.718347 0.000455 -41.200801 19.324472 9.305814 -2.464786 -1.574000 2.681908 -7.341121 13.749640 7.412343 9.855779 -44.489110 -3.903156 -2.646266 -1.527812 1.527813 -0.115742 -14.513051 -28.973891 -1.994583 -1.151569 1.151568 -0.000000 -0.000003 -0.000000 -9.108305 -0.517878 2.259796 -0.124381 -2.384786 45.108874 4.500576 -4.654515 88.071137 1.723198 -3.618373 50.920119 0.000000 0.000000 0.000002 -9.532512 0.000006 -0.000008 -0.761620 -2.932902 39.031058 5.133872 -4.632759 95.881649 1.739750 -3.631689 51.181370 0.000000 0.000000 0.000003 -9.103596 -0.043109 -1.865108 0.154767 -4.068813 39.122664 6.509704 -4.273572 113.462870 2.549572 -4.153913 63.067330 -0.000000 0.000000 0.000002 -8.076688 -0.486726 -3.806309 -4.198885 -8.025514 44.637779 4.252901 -4.639619 85.014805 6.935963 -4.062621 119.322271 0.000000 -0.000000 -0.000000 4.570391 11.014674 -2.160824 -3.142065 -4.978726 16.603597 -9.836858 43.708522 -45.116589 0.000241 -91.387426 0.000417 -31.280702 10.920374 6.151236 2.466108 -1.576215 2.681696 -6.141114 -11.690711 -6.761662 9.914091 42.595505 3.409791 2.647881 -1.528754 1.528752 -0.422778 8.108090 27.509111 1.998922 -1.154108 1.154078 0.000002 0.000006 -0.000002 9.109303 -0.518012 2.259900 0.255271 3.378299 -45.814331 5.654084 5.847933 -88.067469 2.162096 4.544921 -50.866369 0.000002 0.000004 0.000001 9.533398 0.000027 -0.000000 -0.461510 3.841659 -39.722669 6.450755 5.820546 -95.892864 2.182842 4.561679 -51.127733 0.000001 0.000001 0.000001 9.104508 -0.043007 -1.865101 0.469690 4.966902 -39.799434 8.181084 5.368818 -113.503025 3.200459 5.218253 -63.022961 -0.000001 0.000001 0.000001 8.077807 -0.486874 -3.806303 -3.762470 9.063783 -45.253797 5.342519 5.829164 -85.005331 8.716895 5.103540 -119.369194 -0.000001 0.000001 -0.000001 -8.207802 -6.751705 -1.599549 -68.932065 6.383996 -26.845517 53.231233 8.548468 -9.787422 -9.060141 25.522836 7.825832 -0.013000 0.000024 -0.000001 0.000000 -0.000000 -0.000000 8.207796 -6.751704 -1.599546 -38.090240 21.332284 9.031083 59.556278 10.255786 -9.380895 -8.637794 8.294643 -18.462947 -17.991611 0.000003 -0.000002 0.000000 -0.000000 0.000000 
